<?xml version="1.0" encoding="UTF-8"?>
<svg id="Layer_2" data-name="Layer 2" xmlns="http://www.w3.org/2000/svg" xmlns:xlink="http://www.w3.org/1999/xlink" viewBox="0 0 23.48 16.9">
  <defs>
    <style>
      .cls-1 {
        fill: url(#linear-gradient-2);
      }

      .cls-2 {
        fill: #11143d;
      }

      .cls-3 {
        fill: url(#radial-gradient);
      }

      .cls-4 {
        fill: #1c3f77;
      }

      .cls-5 {
        fill: url(#radial-gradient-2);
      }

      .cls-6 {
        fill: url(#linear-gradient);
      }
    </style>
    <radialGradient id="radial-gradient" cx="8.92" cy="15.52" fx="8.92" fy="15.52" r="2.75" gradientUnits="userSpaceOnUse">
      <stop offset="0" stop-color="#4681c2"/>
      <stop offset=".12" stop-color="#3e70ae"/>
      <stop offset=".54" stop-color="#263e70"/>
      <stop offset=".84" stop-color="#171e4a"/>
      <stop offset="1" stop-color="#12133c"/>
    </radialGradient>
    <linearGradient id="linear-gradient" x1="2.97" y1="13.97" x2="9.85" y2="13.97" gradientUnits="userSpaceOnUse">
      <stop offset=".33" stop-color="#0e87a3"/>
      <stop offset="1" stop-color="#000"/>
    </linearGradient>
    <radialGradient id="radial-gradient-2" cx="15.85" cy="12.74" fx="15.85" fy="12.74" r="6.08" xlink:href="#radial-gradient"/>
    <linearGradient id="linear-gradient-2" x1="9.21" y1="12.25" x2="22.44" y2="12.25" xlink:href="#linear-gradient"/>
  </defs>
  <g id="Layer_2-2" data-name="Layer 2">
    <g>
      <path class="cls-3" d="M8.58,16.06c-.28-.12-.57-.26-.84-.39-.47-.24-.88-.48-1.03-.58-.59-.36-1.07-.69-1.41-.95v1.21c.97.47,1.82.77,2.45.97,0,0,0,0,.01,0,1,.3,1.98.59,3.28.57.64,0,1.17-.09,1.52-.16-1.97.05-3.3-.39-3.98-.67Z"/>
      <path class="cls-2" d="M5.29,15.36c.97.47,1.82.77,2.45.97v.52h-2.45v-1.48Z"/>
      <path class="cls-6" d="M2.97,11.82c1.9,1.91,3.66,2.94,4.96,3.54.76.35,1.9.79,1.92.75.02-.04-1.07-.54-1.85-.93-1.29-.65-3.04-1.69-5.02-3.36Z"/>
      <path class="cls-2" d="M14.23,2.48s-.1.06-.15.07c-.13.04-.26.06-.39.08-.22.03-.45.05-.67.06-.04,0-.07,0-.1.04-.12.15-.23.3-.35.45,0,0,0,.02-.01.03.04.02.09,0,.13,0,.04,0,.09,0,.13,0q.02.05.01.13c-.06.01-.13.01-.2.02-.07,0-.13,0-.2,0-.06.06-.38.47-.43.55,0,.02.03.02.04.02.07,0,.14,0,.21,0,.02.04.02.08,0,.13-.13,0-.27.02-.41.02-.25.32-.5.64-.75.96-.07,0-.15,0-.23,0-.01-.04.01-.07.02-.1.2-.44.39-.88.59-1.32.12-.27.24-.54.36-.81.01-.03.04-.06.03-.1-.02,0-.04,0-.06,0-.29,0-.58,0-.88,0-.13,0-.25.02-.38.04-.02,0-.04.01-.06.03-.02.02-.03.04-.05.06-.13.16-.25.32-.38.49-.03.04-.07.07-.13.06-.07,0-.13.01-.21,0,0-.03.02-.05.03-.08.06-.13.12-.26.17-.39.01-.03.04-.06.03-.1-.04-.01-.08,0-.12,0-.27.04-.54.08-.81.12-.46.08-.92.17-1.37.28-.8.19-1.58.43-2.34.76-.56.24-1.09.53-1.58.89-.33.24-.64.51-.9.82-.03.03-.05.06-.08.09-.01.01-.02.03-.03.04-.24.31-.44.64-.57,1.01-.06.16-.1.33-.11.5,0,0,0,.01-.01.03-.05-.11-.08-.22-.1-.32-.1-.46-.03-.9.19-1.31.01-.03.03-.06.05-.08.02-.04.05-.08.08-.12.13-.19.28-.35.45-.51.28-.25.58-.46.91-.65.46-.27.95-.48,1.44-.66.65-.24,1.32-.43,2-.58.44-.1.88-.19,1.32-.26.27-.04.54-.08.81-.11.26-.03.52-.05.78-.07.02,0,.04,0,.06,0,.02-.05.05-.11.08-.17-.02-.04-.04-.08-.07-.11-.03,0-.06,0-.08,0-.31,0-.62.02-.92.06-.85.09-1.69.25-2.51.45-.93.23-1.83.55-2.69.98-.78.4-1.25.77-1.42.9-.68.54-1.16.93-1.34,1.53-.2.68.05,1.32.52,2.11.63,1.07,1.71,2.28,2.93,3.27.16.13.4.3.77.55v-3.52h-2.97v-1.89h8.4v1.89h-2.97v5.14s.07.04.1.06c.13.08.26.16.38.23.12.07.22.13.33.18.11.06.21.11.3.15.11.05.21.1.31.14.22.09.43.15.64.2.51.12,1.9.45,2.4-.22.21-.29.2-.67.14-.98.05-.03.09-.07.14-.1.03.06.14.31.23.63,0,.01,0,.02,0,.04.03.13.06.28.08.42.04.35,0,.72-.23.99-.33.39-.94.44-1.73.34-.41-.05-1.13-.18-2.24-.7h0c-.17-.08-.35-.17-.54-.27-.1-.05-.2-.11-.31-.17-.07-.04-.14-.08-.21-.12-.65-.37-1.39-.85-2.24-1.48-.67-.49-1.41-1.08-2.21-1.78-.18-.15-1.62-1.42-2.66-3.33-.06-.1-.19-.29-.28-.57-.1-.3-.28-1,.04-1.73.15-.35.36-.57.6-.82.27-.28.58-.5,1.13-.83.61-.37,1.25-.66,1.92-.9.71-.26,1.44-.46,2.18-.61.38-.08.77-.14,1.15-.19.33-.04.67-.07,1-.09.41-.02.82-.02,1.23-.01.19,0,.39.02.58.03.01,0,.03,0,.04,0,.02-.03,0-.05-.01-.07-.09-.17-.19-.34-.28-.51-.02-.03-.03-.06-.05-.09.05-.02.1-.02.14-.02.05,0,.09,0,.15,0,.19.21.39.42.59.64.22-.01.43-.05.65-.06.22-.02.43-.04.65-.06.01-.04-.01-.07-.03-.1-.15-.27-.3-.55-.45-.82-.22-.41-.45-.81-.67-1.22-.02-.03-.03-.06-.06-.1.02,0,.04-.01.05-.01.04,0,.08,0,.12,0,.05,0,.09.01.12.05.23.25.45.49.68.74.11.12.06.1.23.1.07,0,.15,0,.22,0,.02,0,.03,0,.05,0,.01.04.01.08,0,.12-.08.03-.17,0-.25.02-.01.03,0,.04.01.05.13.15.27.29.4.44.03.03.06.04.1.04.09,0,.18,0,.27,0,.03,0,.05,0,.08,0,.02.04.01.08,0,.12-.09.03-.18,0-.27.03.02.03.03.04.04.06.12.13.23.25.35.38.03.04.07.05.11.05.2,0,.41,0,.61,0,.13,0,.27.02.4.04.05,0,.1.02.15.04.03,0,.05.02.07.03.07.05.08.12,0,.17Z"/>
      <g>
        <path class="cls-5" d="M23.48,13.86c0,1.47-1.13,2.66-2.58,2.8-.09,0-.18.03-.27.03,0,0,0,0,0,0-.72,0-1.44-.26-1.99-.8h0s-.05-.06-.09-.09c-.47-.5-.77-1.89-.77-1.89h0v-.06h0c0-.15-.02-.27-.05-.39,0,0,0-.02,0-.03,0-.03-.01-.05-.02-.08-.22-.82-.98-1.43-1.88-1.43-.4,0-.78.12-1.08.33-.1.07-.2.14-.28.23-.35.35-.53.8-.56,1.25,0,.02,0,.04,0,.07,0,.05,0,.09,0,.14,0,.02,0,.03,0,.05.01.16.04.33.09.49,0,.01,0,.03.01.04,0,.03.04.09.07.16,0,0,.01.02.02.03.1.21.24.39.41.55.36.36,1.34.54,1.34.54h0s0,0,0,0c.03,0,.07,0,.1,0,.04,0,.08,0,.12-.01.01,0,.02,0,.04,0,.39-.06.77-.24,1.08-.53l.63.63c-1.11,1.1-2.9,1.11-4,0-.14-.14-.26-.3-.37-.47-.46.7-1.23,1.18-2.11,1.27,0,0-.01,0-.02,0-.09,0-.17.02-.26.03,0,0,0,0,0,0-.56,0-1.12-.16-1.6-.48-.14-.09-.27-.2-.39-.32h0c-.1-.1-.2-.21-.29-.33-.07-.09-.13-.18-.18-.27h0c-.05-.08-.09-.15-.12-.23-.02-.04-.04-.09-.06-.13-.09-.23-.16-.47-.19-.72.12.07.22.13.33.18.11.06.21.11.3.15.11.05.21.1.31.14.06.03.11.06.16.09.32.61.97,1.04,1.73,1.04.13,0,.26-.01.38-.04.1-.02.2-.05.3-.09.02,0,.03,0,.05-.01.23-.1.45-.24.64-.42.17-.17.3-.36.39-.56,0,0,0-.02.01-.02,0-.01,0-.02.01-.03.01-.03.02-.06.04-.09,0-.02.02-.04.02-.06.03-.11.06-.22.07-.33.02-.11.02-.23.02-.34,0,0,0,0,0-.01,0-.02,0-.04,0-.05,0-.01,0-.03,0-.04-.01-.12-.03-.24-.06-.35-.2-.68-.65-1.18-1.36-1.32l.72-.68c.39.18.46.22.67.39.04.04.08.07.13.12.14.15.26.31.36.47l1.75-3.52.8.4-.98,1.97s.08-.02.12-.03c.06-.02.12-.03.18-.04.52-.08,1.62-.12,2.51.77,0,0,0,0,0,0,.44.44.73,1.03.81,1.68,0,.08.06.58.07.61,0,0,.02.1.02.13.13.58.51,1.07,1.04,1.32.01,0,.03.01.04.02.02,0,.04.02.06.03.73.32,1.57.15,2.13-.41,0,0,0,0,0,0,0,0,0,0,0,0,.03-.03.05-.06.08-.09.02-.03.05-.05.07-.08,0,0,0,0,0,0,.27-.35.41-1.15.41-1.15h0v-.04s0-.02,0-.03c0-.05,0-.1,0-.15,0-.01,0-.03,0-.05,0-.05-.01-.11-.02-.16,0,0,0,0,0,0,0-.05-.02-.1-.04-.15-.02-.07-.04-.13-.07-.19,0-.02-.01-.03-.02-.05-.01-.03-.03-.06-.05-.1-.01-.02-.02-.05-.04-.07,0-.02-.02-.03-.03-.05-.34-.56-.94-.93-1.63-.94h0c-.49,0-.99.18-1.37.56l-.63-.63c1.11-1.1,2.9-1.11,4,0,.33.33.55.73.68,1.15.09.28.15.57.15.87Z"/>
        <path class="cls-1" d="M16.21,11.07l.92-1.87-.85-.42-1.15,2.36c.36-.09.72-.1,1.09-.06ZM15.76,12.06c-.96.03-1.74.82-1.76,1.78-.02,1.03.8,1.87,1.82,1.87.5,0,.95-.2,1.28-.53l-.6-.62c-.17.18-.42.29-.68.29-.54,0-.99-.45-.97-1,.02-.49.42-.9.91-.93.56-.03,1.03.41,1.03.96,0,.03,0,.05,0,.08h.86s0-.05,0-.08c0-1.03-.85-1.85-1.88-1.82ZM12.32,11.34l.86-.92h-3.86v.93h1.67s-1.21,1.2-1.21,1.2l-.08.08.57.59.03.03c.18-.2.44-.33.73-.33.54,0,.97.43.97.97s-.43.97-.97.97-.96-.42-.97-.95h-.86c.01,1.01.83,1.82,1.84,1.82s1.84-.82,1.84-1.84c0-.87-.6-1.59-1.41-1.78l.82-.77h.02ZM20.62,12.02c-.5,0-.95.2-1.28.52l.6.62c.17-.17.42-.28.68-.28.53,0,.97.43.97.97s-.43.96-.97.96-.97-.43-.97-.96c0-.04,0-.08.01-.11h-.86s0,.07,0,.11c0,1.05.89,1.9,1.96,1.82.9-.07,1.62-.8,1.68-1.7.07-1.06-.77-1.95-1.82-1.95Z"/>
      </g>
      <polygon class="cls-4" points="5.29 15.35 5.29 14.14 5.29 15.36 5.29 15.35"/>
    </g>
  </g>
</svg>