<svg class="ollyo_dptqsx0p" data-droip="dpd2zrif" width="55" height="55" viewBox="0 0 55 55" fill="none" xmlns="http://www.w3.org/2000/svg" style="animation-name: none; will-change: transform; transition-property: transform; transition-duration: 8980ms; transition-timing-function: cubic-bezier(0, 0, 1, 1); transform-style: preserve-3d; transform: rotateZ(-180deg);">
    <path d="M30.8917 0L34.589 10.3949L44.5495 5.65709C46.1457 7.25319 47.7434 8.85098 49.3429 10.4505L44.6051 20.411L55 24.1083V30.8867L44.6051 34.584L49.3429 44.5445C47.7468 46.1406 46.149 47.7384 44.5495 49.3379L34.589 44.6001L30.8917 54.9949H24.1133L20.416 44.6001L10.4555 49.3379C8.8594 47.7418 7.26161 46.144 5.66214 44.5445L10.3999 34.584L0 30.8917V24.1133L10.3949 20.416L5.65709 10.4555C7.25319 8.8594 8.85098 7.26161 10.4505 5.66214L20.411 10.3999L24.1133 0H30.8917Z" fill="#9FFA62"></path>
</svg>