<svg width="238" height="64" viewBox="0 0 238 64" fill="none" xmlns="http://www.w3.org/2000/svg">
<path d="M113.162 3.19684C113.57 3.09482 113.808 2.68676 113.715 2.2787L113.29 0.578432C113.188 0.170369 112.763 -0.0846708 112.355 0.0258464C89.9961 5.75573 73.4525 16.8244 64.8917 23.5745C64.5261 22.8094 64.0925 22.0868 63.5995 21.4067C59.9609 16.3909 53.4829 14.3166 45.3471 15.5577C33.3603 17.377 11.4949 32.8494 0.0521341 61.5584C-0.10089 61.9494 0.0946407 62.4 0.485701 62.553L2.11795 63.1906C2.50901 63.3436 2.94258 63.1566 3.09561 62.7656C9.69263 46.409 27.5199 21.5767 45.8487 18.7882C52.7093 17.7426 58.0736 19.3578 60.9556 23.328C61.4826 24.0591 61.9247 24.8582 62.2733 25.7083C61.2361 26.584 60.3945 27.3321 59.7569 27.9102C54.5371 32.6709 50.3289 38.7663 48.7647 43.8246C47.3024 48.5769 49.4108 50.7022 50.7965 51.5523C52.4202 52.5385 55.1492 53.0231 58.9492 49.7245C60.794 48.1263 62.6643 45.1678 63.4124 43.6716C66.3539 37.8227 67.2295 31.8123 66.0394 26.8305C76.8955 18.0741 93.8131 8.16161 113.162 3.19684ZM60.505 42.2009C59.9269 43.34 58.2606 45.9925 56.8154 47.2507C54.9621 48.8659 53.5084 49.3675 52.5138 48.7554C52.1312 48.5259 50.9665 47.8117 51.9017 44.7853C53.2959 40.2541 57.1555 34.7197 61.9757 30.3245C62.3668 29.9675 62.7748 29.6019 63.1914 29.2364C63.6675 33.13 62.7663 37.6952 60.505 42.2009Z" fill="black"/>
<path d="M104.057 34.8217C103.097 34.3456 102.068 34.1076 100.946 34.1076C100.41 34.1076 99.8576 34.1586 99.2796 34.2691C97.3838 34.6262 95.9215 35.6718 94.9184 37.3636C94.4678 38.1287 94.1618 38.9108 94.0087 39.6845C93.8727 40.3476 92.4785 47.6247 92.4785 47.6247C92.419 47.9137 92.6485 48.1858 92.9461 48.1858L94.7994 48.1773C95.0884 48.1773 95.3349 47.9733 95.3945 47.6842C95.3945 47.6842 96.7717 40.5346 96.8312 40.2456C97.1032 39.0384 97.6388 38.1712 98.4719 37.5931C99.4496 36.913 100.572 36.743 101.889 37.0746C102.782 37.3041 103.522 37.9332 103.845 38.7918C104.091 39.4549 104.142 40.186 103.998 40.9597L102.774 47.6162C102.723 47.9052 102.944 48.1773 103.241 48.1773H105.094C105.384 48.1773 105.639 47.9733 105.69 47.6842L106.693 42.4049C106.88 41.4357 107.067 40.4411 106.99 39.4039C106.846 37.2531 105.851 35.7059 104.057 34.8217Z" fill="black"/>
<path d="M139.457 34.8217C138.496 34.3456 137.467 34.1076 136.345 34.1076C135.81 34.1076 135.257 34.1586 134.679 34.2691C132.783 34.6262 131.312 35.6718 130.318 37.3636C129.867 38.1287 129.561 38.9108 129.408 39.6845C129.272 40.3476 127.878 47.6247 127.878 47.6247C127.818 47.9137 128.048 48.1858 128.345 48.1858L130.199 48.1773C130.488 48.1773 130.734 47.9733 130.794 47.6842L131.737 42.7449C131.967 41.5548 132.171 40.5346 132.231 40.2456C132.503 39.0384 133.038 38.1712 133.871 37.5931C134.849 36.913 135.971 36.743 137.289 37.0746C138.181 37.3041 138.921 37.9332 139.244 38.7918C139.491 39.4549 139.542 40.186 139.397 40.9597L138.173 47.6162C138.122 47.9052 138.343 48.1773 138.641 48.1773H140.494C140.783 48.1773 141.038 47.9733 141.089 47.6842L142.092 42.4049C142.279 41.4357 142.466 40.4411 142.39 39.4039C142.245 37.2531 141.259 35.7059 139.457 34.8217Z" fill="black"/>
<path d="M182.125 34.5667C181.521 34.2862 180.841 34.1331 180.118 34.0991C178.027 34.0056 176.361 34.7707 175.162 36.3775L175.128 36.4285L175.094 36.3775C174.618 35.5699 173.921 34.9578 173.028 34.5667C172.136 34.1756 171.167 34.0396 170.061 34.1501C168.548 34.3032 167.298 34.9578 166.355 36.0884C165.564 37.0321 165.063 38.1713 164.782 39.676C164.638 40.4411 163.634 45.8224 163.303 47.5822C163.252 47.8713 163.473 48.1433 163.77 48.1433H165.641C165.93 48.1433 166.185 47.9393 166.236 47.6502C166.525 46.12 167.375 41.5633 167.384 41.4953C167.52 40.7642 167.656 40.016 167.851 39.2934C168.319 37.5932 169.568 36.7515 171.26 36.9641C172.314 37.1001 173.054 37.7972 173.232 38.8259C173.317 39.3104 173.326 39.8375 173.249 40.3051C173.19 40.6877 172.229 45.8565 171.915 47.5907C171.864 47.8798 172.085 48.1518 172.382 48.1518H174.219C174.508 48.1518 174.763 47.9478 174.814 47.6587L176.123 40.6366C176.199 40.2286 176.301 39.761 176.429 39.3189C176.862 37.8057 177.968 36.9386 179.421 36.9386C179.574 36.9386 179.736 36.9471 179.906 36.9726C180.935 37.1001 181.657 37.7972 181.853 38.8514C181.946 39.3614 181.929 39.914 181.793 40.6281C181.7 41.1467 180.79 45.933 180.476 47.5907C180.416 47.8798 180.646 48.1518 180.943 48.1518H182.813C183.102 48.1518 183.357 47.9478 183.408 47.6587C183.681 46.205 184.48 41.9884 184.633 41.1552C184.82 40.1521 184.964 39.0724 184.735 37.9417C184.395 36.3435 183.519 35.2128 182.125 34.5667Z" fill="black"/>
<path d="M202.443 38.7663C201.576 35.4593 198.881 34.0991 196.212 34.0991C195.744 34.0991 195.276 34.1416 194.826 34.2181C191.425 34.8047 187.914 37.6187 188.22 42.4134C188.348 45.4314 190.193 47.6417 193.151 48.3218C193.721 48.4493 194.316 48.5174 194.928 48.5174C197.24 48.5174 200.233 47.4887 201.678 44.6152C201.686 44.5982 201.737 44.4877 201.797 44.3432C201.916 44.0797 201.72 43.7821 201.431 43.7821H199.425C199.119 43.7821 198.838 43.9266 198.651 44.1732C197.427 45.7629 195.174 46.0265 193.593 45.4739C192.216 44.9893 191.349 43.9266 191.221 42.5664L191.213 42.5239H202.052C202.273 42.5239 202.469 42.3624 202.503 42.1414C202.528 41.9883 202.554 41.8183 202.571 41.7078C202.673 40.8407 202.63 40.1266 202.622 40.0075C202.588 39.4209 202.503 38.9874 202.443 38.7663ZM191.595 39.7355L191.621 39.676C192.301 37.8482 194.29 36.9386 195.999 36.9386C196.101 36.9386 196.195 36.9386 196.288 36.9471C197.665 37.0321 199.289 37.7972 199.697 39.676L199.706 39.727H191.595V39.7355Z" fill="black"/>
<path d="M237.987 40.0075C237.944 39.4209 237.859 38.9959 237.808 38.7748V38.7663C236.941 35.4678 234.246 34.1076 231.577 34.1076C231.109 34.1076 230.642 34.1501 230.191 34.2266C226.791 34.8132 223.28 37.6272 223.586 42.4219C223.713 45.4399 225.558 47.6502 228.516 48.3303C229.086 48.4578 229.681 48.5258 230.293 48.5258C232.606 48.5258 235.598 47.4972 237.043 44.6237C237.052 44.6067 237.103 44.4962 237.162 44.3517C237.281 44.0881 237.086 43.7906 236.797 43.7906H234.79C234.484 43.7906 234.204 43.9351 234.017 44.1817C232.793 45.7714 230.54 46.035 228.959 45.4824C227.581 44.9978 226.714 43.9351 226.587 42.5749L226.578 42.5324H237.417C237.638 42.5324 237.834 42.3709 237.868 42.1499C237.893 41.9968 237.919 41.8268 237.936 41.7163C238.029 40.8406 237.995 40.1265 237.987 40.0075ZM226.952 39.7355L226.978 39.676C227.658 37.8482 229.647 36.9385 231.356 36.9385C231.458 36.9385 231.551 36.9385 231.645 36.947C233.022 37.0321 234.646 37.7972 235.054 39.676L235.062 39.727H226.952V39.7355Z" fill="black"/>
<path d="M220.457 34.4647L218.604 34.4732C218.315 34.4732 218.068 34.6772 218.009 34.9663L217.065 39.9055C216.836 41.0957 216.632 42.1159 216.572 42.4049C216.3 43.6121 215.765 44.4792 214.931 45.0573C213.954 45.7374 212.832 45.9075 211.514 45.5759C210.621 45.3464 209.882 44.7173 209.559 43.8586C209.312 43.1955 209.261 42.4644 209.406 41.6908L210.63 35.0343C210.681 34.7452 210.46 34.4732 210.162 34.4732H208.309C208.02 34.4732 207.765 34.6772 207.714 34.9663L206.711 40.2456C206.524 41.2147 206.337 42.2094 206.413 43.2465C206.575 45.4059 207.561 46.9531 209.355 47.8458C210.315 48.3218 211.344 48.5599 212.466 48.5599C213.002 48.5599 213.554 48.5089 214.132 48.3983C216.028 48.0413 217.499 46.9956 218.493 45.3039C218.944 44.5388 219.25 43.7566 219.403 42.983C219.539 42.3199 220.933 35.0428 220.933 35.0428C220.984 34.7367 220.755 34.4647 220.457 34.4647Z" fill="black"/>
<path d="M120.949 34.5242C120.15 34.2436 119.326 34.0991 118.484 34.0991C117.855 34.0991 117.217 34.1756 116.563 34.3372C113.06 35.1873 110.654 38.2478 110.569 41.9543C110.527 44.0117 111.19 45.6949 112.55 46.9446C113.638 47.9393 114.981 48.4748 116.563 48.5344C116.665 48.5344 116.775 48.5429 116.877 48.5429C118.603 48.5429 120.057 47.9903 121.213 46.9021L121.306 46.8171L121.298 46.8851L121.162 47.6247C121.111 47.9138 121.332 48.1858 121.629 48.1858H123.279C123.568 48.1858 123.814 47.9818 123.874 47.6927C124.035 46.8511 124.783 42.9575 124.783 42.9575C124.919 42.2264 125.064 41.4783 125.081 40.6876C125.149 37.7632 123.602 35.4593 120.949 34.5242ZM118.986 45.4654C118.458 45.6524 117.931 45.7459 117.404 45.7459C116.92 45.7459 116.427 45.6694 115.951 45.5079C114.65 45.0743 113.868 44.1477 113.621 42.7535C113.264 40.6961 114.165 38.6218 115.866 37.5932C116.588 37.1511 117.413 36.9301 118.322 36.9301C119.241 36.9301 119.997 37.1341 120.635 37.5677C121.612 38.2308 122.123 39.2084 122.191 40.5601C122.318 42.745 121 44.7683 118.986 45.4654Z" fill="black"/>
<path d="M156.247 34.5242C155.448 34.2436 154.623 34.0991 153.781 34.0991C153.152 34.0991 152.515 34.1756 151.86 34.3372C148.358 35.1873 145.952 38.2478 145.867 41.9543C145.824 44.0117 146.487 45.6949 147.848 46.9446C148.936 47.9393 150.279 48.4748 151.86 48.5344C151.962 48.5344 152.073 48.5429 152.175 48.5429C153.9 48.5429 155.354 47.9903 156.51 46.9021L156.604 46.8171L156.595 46.8851L156.459 47.6247C156.408 47.9138 156.629 48.1858 156.927 48.1858H158.576C158.865 48.1858 159.112 47.9818 159.171 47.6927C159.333 46.8511 160.081 42.9575 160.081 42.9575C160.217 42.2264 160.361 41.4783 160.378 40.6876C160.438 37.7632 158.891 35.4593 156.247 34.5242ZM154.275 45.4654C153.747 45.6524 153.22 45.7459 152.693 45.7459C152.209 45.7459 151.716 45.6694 151.24 45.5079C149.939 45.0743 149.157 44.1477 148.91 42.7535C148.553 40.6961 149.454 38.6218 151.155 37.5932C151.877 37.1511 152.702 36.9301 153.611 36.9301C154.53 36.9301 155.286 37.1341 155.924 37.5677C156.901 38.2308 157.412 39.2084 157.48 40.5601C157.607 42.745 156.289 44.7683 154.275 45.4654Z" fill="black"/>
</svg>
