<svg width="22" height="22" viewBox="0 0 22 22" fill="none" xmlns="http://www.w3.org/2000/svg">
<path fill-rule="evenodd" clip-rule="evenodd" d="M3 0.5C1.61929 0.5 0.5 1.61929 0.5 3C0.5 4.38071 1.61929 5.5 3 5.5C3.66304 5.5 4.29893 5.23661 4.76777 4.76777C5.23661 4.29893 5.5 3.66304 5.5 3C5.5 2.33696 5.23661 1.70107 4.76777 1.23223C4.29893 0.763392 3.66304 0.5 3 0.5ZM11 0.5C9.61929 0.5 8.5 1.61929 8.5 3C8.5 4.38071 9.61929 5.5 11 5.5C11.663 5.5 12.2989 5.23661 12.7678 4.76777C13.2366 4.29893 13.5 3.66304 13.5 3C13.5 2.33696 13.2366 1.70107 12.7678 1.23223C12.2989 0.763392 11.663 0.5 11 0.5ZM20.7678 4.76777C20.2989 5.23661 19.663 5.5 19 5.5C17.6193 5.5 16.5 4.38071 16.5 3C16.5 1.61929 17.6193 0.5 19 0.5C19.663 0.5 20.2989 0.763392 20.7678 1.23223C21.2366 1.70107 21.5 2.33696 21.5 3C21.5 3.66304 21.2366 4.29893 20.7678 4.76777ZM3 8.5C1.61929 8.5 0.5 9.61929 0.5 11C0.5 12.3807 1.61929 13.5 3 13.5C4.38071 13.5 5.5 12.3807 5.5 11C5.5 10.337 5.23661 9.70107 4.76777 9.23223C4.29893 8.76339 3.66304 8.5 3 8.5ZM8.5 11C8.5 9.61929 9.61929 8.5 11 8.5C12.3807 8.5 13.5 9.61929 13.5 11C13.5 12.3807 12.3807 13.5 11 13.5C9.61929 13.5 8.5 12.3807 8.5 11ZM16.5 11C16.5 12.3807 17.6193 13.5 19 13.5C20.3807 13.5 21.5 12.3807 21.5 11C21.5 10.337 21.2366 9.70107 20.7678 9.23223C20.2989 8.76339 19.663 8.5 19 8.5C17.6193 8.5 16.5 9.61929 16.5 11ZM0.5 19C0.5 17.6193 1.61929 16.5 3 16.5C3.66304 16.5 4.29893 16.7634 4.76777 17.2322C5.23661 17.7011 5.5 18.337 5.5 19C5.5 19.663 5.23661 20.2989 4.76777 20.7678C4.29893 21.2366 3.66304 21.5 3 21.5C1.61929 21.5 0.5 20.3807 0.5 19ZM11 16.5C9.61929 16.5 8.5 17.6193 8.5 19C8.5 20.3807 9.61929 21.5 11 21.5C11.663 21.5 12.2989 21.2366 12.7678 20.7678C13.2366 20.2989 13.5 19.663 13.5 19C13.5 17.6193 12.3807 16.5 11 16.5ZM16.5 19C16.5 17.6193 17.6193 16.5 19 16.5C19.663 16.5 20.2989 16.7634 20.7678 17.2322C21.2366 17.7011 21.5 18.337 21.5 19C21.5 19.663 21.2366 20.2989 20.7678 20.7678C20.2989 21.2366 19.663 21.5 19 21.5C17.6193 21.5 16.5 20.3807 16.5 19Z" fill="black"/>
</svg>
